<?xml version="1.0" encoding="utf-8"?>
<!-- Generator: Adobe Illustrator 24.0.1, SVG Export Plug-In . SVG Version: 6.00 Build 0)  -->
<svg version="1.1" xmlns="http://www.w3.org/2000/svg" xmlns:xlink="http://www.w3.org/1999/xlink" x="0px" y="0px"
	 width="24px" height="24px" viewBox="0 0 24 24" style="enable-background:new 0 0 24 24;" xml:space="preserve">
<path d="M19.9,11.7c0,0-0.8-1-2.1-2c-1.8-1.3-3.8-2-5.8-2c-2,0-4,0.7-5.8,2c-1.3,1-2.1,1.9-2.1,2c-0.2,0.2-0.2,0.5,0,0.7
	c0,0,0.6,0.8,1.6,1.6L5,15.5c-0.1,0.3,0,0.6,0.3,0.8c0.1,0,0.2,0.1,0.3,0.1c0.2,0,0.4-0.1,0.5-0.3l0.7-1.3c0.6,0.4,1.2,0.7,1.8,0.9
	l-0.7,1.3c-0.1,0.3,0,0.6,0.3,0.8c0.1,0,0.2,0.1,0.3,0.1c0.2,0,0.4-0.1,0.5-0.3l0.7-1.5c0.6,0.2,1.3,0.3,1.9,0.3v1.3
	c0,0.3,0.3,0.6,0.6,0.6c0.3,0,0.6-0.3,0.6-0.6v-1.3c0.6,0,1.3-0.1,1.9-0.3l0.7,1.5c0.1,0.2,0.3,0.3,0.5,0.3c0.1,0,0.2,0,0.3-0.1
	c0.3-0.1,0.4-0.5,0.3-0.8l-0.7-1.3c0.6-0.2,1.2-0.6,1.8-0.9L18,16c0.1,0.2,0.3,0.3,0.5,0.3c0.1,0,0.2,0,0.3-0.1
	c0.3-0.1,0.4-0.5,0.3-0.8L18.3,14c1-0.8,1.6-1.6,1.6-1.6C20,12.1,20,11.9,19.9,11.7z M17.1,13.4c-1.6,1.1-3.3,1.7-5.1,1.7
	c-1.8,0-3.5-0.6-5.1-1.7c-0.7-0.5-1.3-1.1-1.6-1.4c0.3-0.3,0.9-0.9,1.6-1.4c1.6-1.1,3.3-1.7,5.1-1.7c1.8,0,3.5,0.6,5.1,1.7
	c0.7,0.5,1.3,1.1,1.6,1.4C18.4,12.3,17.8,12.9,17.1,13.4z"/>
</svg>
