<svg id="Filled" height="512" viewBox="0 0 512 512" width="512" xmlns="http://www.w3.org/2000/svg" xmlns:xlink="http://www.w3.org/1999/xlink"><linearGradient id="linear-gradient" gradientUnits="userSpaceOnUse" x1="256" x2="256" y1="488" y2="24"><stop offset="0" stop-color="#ffc70d"/><stop offset=".768" stop-color="#5cbda7"/><stop offset=".891" stop-color="#34a7cc"/><stop offset="1" stop-color="#008afd"/></linearGradient><path d="m488 304c0 128.13-103.87 184-232 184s-232-55.87-232-184 103.87-280 232-280 232 151.87 232 280z" fill="url(#linear-gradient)"/><path d="m256 456c-122.746 0-223.161-51.321-231.389-168.276-.361 5.455-.611 10.892-.611 16.276 0 128.13 103.87 184 232 184s232-55.87 232-184c0-5.384-.25-10.821-.611-16.276-8.228 116.955-108.643 168.276-231.389 168.276z" fill="#f89f00"/><g fill="#fff"><path d="m136 205.333c0 22.092-7.163 26.667-16 26.667s-16-1.909-16-24 16-56 16-56 16 31.242 16 53.333z"/><circle cx="192" cy="200" r="24"/><circle cx="192" cy="200" r="8"/><circle cx="336" cy="200" r="24"/><circle cx="336" cy="200" r="8"/></g><path d="m256 16c-132.945 0-240 157.555-240 288 0 120.227 89.719 192 240 192s240-71.773 240-192c0-130.445-107.055-288-240-288zm0 464c-140.262 0-224-65.8-224-176 0-123.2 99.918-272 224-272s224 148.8 224 272c0 110.2-83.738 176-224 176z"/><path d="m192 176a24 24 0 1 0 24 24 24.027 24.027 0 0 0 -24-24zm0 32a8 8 0 1 1 8-8 8.008 8.008 0 0 1 -8 8z"/><path d="m336 176a24 24 0 1 0 24 24 24.027 24.027 0 0 0 -24-24zm0 32a8 8 0 1 1 8-8 8.008 8.008 0 0 1 -8 8z"/><path d="m288 224h-48a8 8 0 0 0 0 16h48a8 8 0 0 0 0-16z"/><path d="m112.879 148.352c-.688 1.348-16.879 33.234-16.879 56.984 0 23 8.074 34.664 24 34.664s24-11.664 24-34.664c0-23.75-16.191-55.641-16.879-56.984-2.734-5.344-11.508-5.344-14.242 0zm7.121 75.648c-2.992 0-8 0-8-18.664 0-10.375 4.078-23.375 8-33.477 3.922 10.1 8 23.1 8 33.477 0 18.664-5.008 18.664-8 18.664z"/></svg>