<svg id="Filled" height="512" viewBox="0 0 512 512" width="512" xmlns="http://www.w3.org/2000/svg"><path d="m488 304c0 128.13-103.87 184-232 184s-232-55.87-232-184 103.87-280 232-280 232 151.87 232 280z" fill="#ffc70d"/><path d="m256 456c-122.746 0-223.161-51.321-231.389-168.276-.361 5.455-.611 10.892-.611 16.276 0 128.13 103.87 184 232 184s232-55.87 232-184c0-5.384-.25-10.821-.611-16.276-8.228 116.955-108.643 168.276-231.389 168.276z" fill="#f89f00"/><path d="m256 456c-122.746 0-223.161-51.321-231.389-168.276-.361 5.455-.611 10.892-.611 16.276 0 128.13 103.87 184 232 184s232-55.87 232-184c0-5.384-.25-10.821-.611-16.276-8.228 116.955-108.643 168.276-231.389 168.276z" fill="#f89f00"/><ellipse cx="96" cy="232" fill="#f597a4" rx="24" ry="16"/><ellipse cx="416" cy="232" fill="#f597a4" rx="24" ry="16"/><path d="m256 16c-132.945 0-240 157.555-240 288 0 120.223 89.719 192 240 192s240-71.777 240-192c0-130.445-107.055-288-240-288zm0 464c-140.258 0-224-65.793-224-176 0-123.2 99.922-272 224-272s224 148.8 224 272c0 110.207-83.742 176-224 176z"/><path d="m160 192a8 8 0 0 0 8-8 8 8 0 0 1 16 0 8 8 0 0 0 16 0 24 24 0 0 0 -48 0 8 8 0 0 0 8 8z"/><path d="m320 192a8 8 0 0 0 8-8 8 8 0 0 1 16 0 8 8 0 0 0 16 0 24 24 0 0 0 -48 0 8 8 0 0 0 8 8z"/><path d="m368 208a8 8 0 0 0 -8 8c0 48.523-46.656 88-104 88s-104-39.477-104-88a8 8 0 0 0 -16 0c0 57.348 53.828 104 120 104s120-46.652 120-104a8 8 0 0 0 -8-8z"/></svg>