<?xml version="1.0" encoding="utf-8"?>
<!-- Generator: Adobe Illustrator 24.0.1, SVG Export Plug-In . SVG Version: 6.00 Build 0)  -->
<svg version="1.1" xmlns="http://www.w3.org/2000/svg" xmlns:xlink="http://www.w3.org/1999/xlink" x="0px" y="0px"
	 width="24px" height="24px" viewBox="0 0 24 24" style="enable-background:new 0 0 24 24;" xml:space="preserve">
<path d="M19.9,11.7c0,0-0.8-1-2.1-2c-1.8-1.3-3.8-2-5.8-2s-4,0.7-5.8,2c-1.3,1-2.1,1.9-2.1,2c-0.2,0.2-0.2,0.5,0,0.7
	c0,0,0.8,1,2.1,2c1.8,1.3,3.8,2,5.8,2c2,0,4-0.7,5.8-2c1.3-1,2.1-1.9,2.1-2C20,12.1,20,11.9,19.9,11.7z M15.2,12
	c0,1.7-1.4,3.2-3.2,3.2S8.8,13.7,8.8,12s1.4-3.2,3.2-3.2S15.2,10.3,15.2,12z M5.3,12c0.5-0.5,1.6-1.6,3.1-2.3
	C8,10.3,7.7,11.1,7.7,12c0,0.9,0.3,1.7,0.7,2.3c-0.5-0.2-1-0.5-1.5-0.9C6.2,12.9,5.6,12.3,5.3,12z M17.1,13.4
	c-0.5,0.4-1,0.7-1.5,0.9c0.4-0.7,0.7-1.5,0.7-2.3s-0.3-1.7-0.7-2.3c0.5,0.2,1,0.5,1.5,0.9c0.7,0.5,1.3,1.1,1.6,1.4
	C18.4,12.3,17.8,12.9,17.1,13.4z M12,11.1c0.5,0,0.9,0.4,0.9,0.9c0,0.5-0.4,0.9-0.9,0.9s-0.9-0.4-0.9-0.9
	C11.1,11.5,11.5,11.1,12,11.1z"/>
</svg>
